<svg version="1" xmlns="http://www.w3.org/2000/svg" width="533.333" height="533.333" viewBox="0 0 400.000000 400.000000"><path d="M316.4 24.1c-.3.6-.2 1.4.5 1.8 1.7 1.1 25.2 5.3 25.9 4.7 1.3-1.4-1.9-2.8-9.9-4.5-14-3-15.7-3.2-16.5-2zM190.7 26.1c-1 .6-3.4.8-5.2.5-2.4-.5-4.6-.1-7.2 1.3-2.8 1.4-5.1 1.8-8.4 1.4-14.1-1.6-29.3 8-46.4 29.2-8.2 10.2-16.1 23.7-14.9 25.7.4.6.3.8-.3.5-2.7-1.7-3.2 13.9-.7 23.2.8 3 1.4 7 1.4 8.8 0 6 3.8 13.9 9.6 19.8 5.9 6.1 5.8 5.9 4.4 10.1-.7 1.9-.7 4.5 0 7.4l.9 4.5-.3-4.9c-.4-5.5.2-8.6 1.5-8.6.6 0 1.3.8 1.6 1.7.7 1.9 3.6 4.6 6.6 6.4 1.7 1 1.8.5 1.6-7.6-.2-7.5 0-8.8 1.8-10.6 1.1-1.1 2.6-2.2 3.4-2.3 6.2-1.4 7.9-1.9 7.9-2.6 0-.4 1.2-.8 2.6-.8 1.9 0 4.5-2 10.3-8.1 4.3-4.4 8.2-8.1 8.7-8.1s2.6-1.4 4.7-3.1c4.2-3.5 10.3-13.3 14.3-23.1l2.7-6.7 1.6 2.9c.9 1.6 3 5.5 4.7 8.7 4.4 8.2 5.7 10.3 6.9 10.3.6 0 4.3 2.9 8.2 6.5 3.9 3.6 7.6 6.5 8.2 6.5.6 0 2.6 1.3 4.4 3 1.9 1.6 4.3 3 5.3 3 2.8.1 5 2.1 6.6 6 1.3 3.1 1.9 3.5 5.2 3.5 3.7 0 3.9.2 5.8 5 1.4 3.4 1.8 6.2 1.4 8.8-.8 4.8-.1 6 2.5 4.6 2.2-1.1 5.9-8.8 5.9-12.1 0-1.4.5-1.8 1.5-1.4 1.3.5 1.4.2.5-1.5-2-3.7 1.3-12.6 7.2-19.6 4.9-5.9 6.1-15.1 3.2-25.8-.9-3.3-1.9-7.4-2.4-9-1.8-7.7-6.3-14.6-15.3-23.7-5.1-5.1-11-10.6-13.2-12.3-2.2-1.6-6.2-4.6-9-6.6-9-6.7-34.7-13.6-39.8-10.8zM312.4 33.8c-2.9 6.2-2.9 6.2-6.4 5.5-5-.9-7-.6-9.1 1.3-2.5 2.3-2.4 4.9.3 6.8 2.3 1.6 9.5 2.1 11.3.8.6-.4 2.3-3.5 3.9-6.8l2.9-6.2 4.3 2c2.5 1 4.9 1.6 5.5 1.3 1.6-1.1-.6-3-5.1-4.5-2.1-.7-3.7-1.7-3.4-2.1.3-.5.1-1.6-.4-2.6-.8-1.3-1.5-.5-3.8 4.5zM338.3 34.7c-1.1 1.6-4.1 6.6-6.8 11.3-2.6 4.7-4.9 8.7-5.1 8.9-.2.2-1.3-.4-2.4-1.4-1.3-1.1-3.4-1.8-5.7-1.7-7.1.3-7.1 4.2-.1 6.1 8.4 2.4 9.4 1.8 15.7-9.4 7-12.4 8.3-15.3 7.1-16-.4-.3-1.7.7-2.7 2.2zM67 77.9c0 .4-1.1.6-2.4.4-1.3-.3-2.7 0-3 .6-.4.5-1.3.8-2.1.4-.8-.3-2.3-.2-3.2.2-1 .4-3.1.7-4.8.6-2.8-.2-2.9-.2-1.3 1.5 1.1 1.1 2.3 1.4 3.5.9 1-.4 3.6-.9 5.8-1.1 8.7-.8 13.9-2 14.3-3.2.2-.8-.8-1.2-3.2-1.2-2 0-3.6.4-3.6.9zM71.5 82.8c.1.9-.1 2.1-.5 2.7-.4.5-.8 3.2-.8 6 0 9.2-.2 10-2.3 11.3-1.4.9-1.9 1-1.4.2.5-.9.1-1-1.6-.5-3.3 1-4.3 2.1-3.5 4 .9 2.4 7.2 1.7 7-.8-.2-1.3.1-1.5 1.1-.7 2.1 1.8 2.8-.5 3-11 .2-5.4.5-10.3.9-10.8.3-.5 0-1.2-.8-1.5-.9-.4-1.3 0-1.1 1.1zM65 104.4c0 .2-.8 1-1.7 1.7-1.6 1.3-1.7 1.2-.4-.4 1.3-1.6 2.1-2.1 2.1-1.3zM48 93.6c0 4.4.4 7.3.9 6.9.5-.3 1.2-.1 1.5.3.3.5-1.1.7-3.2.5-2.7-.3-4.5.1-6.2 1.5-3.4 2.7-2.1 5.2 2.8 5.2 4.7 0 7.2-1.7 7.2-5v-9.1c.1-5.1-.2-6.8-1.4-7.2-1.4-.5-1.6.5-1.6 6.9zm.5 9.6c.5-.4.5-.1.1.6-.6 1-1.1 1-2.2.1-.8-.6-1.4-1.4-1.4-1.6 0-.3.6 0 1.3.6.8.6 1.8.7 2.2.3zM327.5 112c.4.7 0 1-1.1.8-1.5-.2-3 1.9-6.9 9.9-2.8 5.6-5.3 10.4-5.6 10.7-.3.4-1.9 0-3.5-.9-3.9-2-5.6-1.9-8.8.6-5.4 4.2-2.1 8.9 6.4 8.9 3.8 0 5.7-.5 6.7-1.8 1.4-1.7 7.9-14.8 10.6-21.5 2.1-4.9 3.1-4.7 2.3.3-.9 5.5.6 8 4.8 8 3.2 0 6.3-2 5-3.3-.4-.3-1.9-.3-3.5 0l-2.8.5-.3-6.3c-.2-5.3-.6-6.4-2.2-6.7-1.2-.3-1.6 0-1.1.8zM312 138c0 1.4-7.7 1.2-8.6-.2-.4-.6.1-1.7 1.1-2.4 1.5-1.1 2.3-1.1 4.6.2 1.6.8 2.9 1.9 2.9 2.4z"/><path d="M213.3 129c-4.2 1.7-2.4 2.2 5.2 1.5 6.8-.7 7.8-.5 12 1.9 2.6 1.4 4.5 2 4.3 1.3-.2-.7-2.4-2.2-4.8-3.5-4.7-2.3-12.5-2.9-16.7-1.2zM152.2 133.7c-3.9 1.9-9.2 7.1-9.2 9.1 0 .7 1.5-.2 3.3-2.1 3.9-4.2 10.2-6.2 17-5.4 4.9.6 6.2-.4 2.8-2.3-2.9-1.5-10.1-1.2-13.9.7zM261.2 146.5c-.1 4.4-.5 9.1-.8 10.5-.5 2.1-.4 2.2.6.8.6-1.1.9-5.2.7-10.5l-.3-8.8-.2 8zM124.5 161.8c.6 4.4 3.1 9.6 5.8 11.9 1.6 1.4 1.6 1.1-.5-1.7-1.4-1.9-3.3-5.8-4.2-8.5-1.1-3.5-1.4-4-1.1-1.7zM256.6 165.1c-1 1.6-2.1 4.2-2.6 5.7-.4 1.5-1.1 3.6-1.4 4.7-.4 1.1.9-1.3 2.9-5.4 3.6-7.7 4.2-10.3 1.1-5zM208.4 164.7c.7 4.4 11.9 5.7 19.5 2.2 6-2.7 4.4-4.3-3-2.9-4.8 1-10.3.7-15.1-.6-1.1-.3-1.6.1-1.4 1.3zM171.6 167.2c-1.1.6-5.5 1.1-9.8 1.2-5.2.1-7.9.5-8.2 1.3-1.4 3.5 14.4 3.7 19.8.4 2-1.3 3.6-2.7 3.6-3.2 0-1.2-3.1-1.1-5.4.3zM246 176c0 .5.7 1 1.6 1 .8 0 1.2-.5.9-1-.3-.6-1-1-1.6-1-.5 0-.9.4-.9 1zM134.8 180.7c1.9 3.2 3.6 4.9 5.1 5.1 3 .5 5-1.3 3.3-3-.9-.9-1.2-.8-1.2.5 0 3-2.9 1.8-5.4-2.2-3.7-5.7-5.1-6.1-1.8-.4zM346.5 200.7c-1.6.2-3.7.6-4.5.9-.8.3-4.5.8-8.1 1-3.6.3-7.9.9-9.5 1.3-2.5.7-2.7 1-1 1.6 1.1.5 2.7.3 3.8-.4 1.3-.8 1.8-.9 1.3-.1s.8.9 4.7.4c2.9-.4 5.4-1 5.6-1.3.1-.3 2.2-.5 4.7-.3 5.8.5 9.8-.5 8.8-2.1-.4-.8-.1-.7 1 .1 1.1 1 2.9 1.2 5.7.7 9.5-1.6-1.7-3.2-12.5-1.8zM149 201.4c0 1.2 4.9 10.4 5.9 11 .5.3-.5-2-2.2-5.2-3.3-6.3-3.7-6.9-3.7-5.8zM237.3 207.8c-4.8 7.1-20.2 23.1-22.6 23.7-1.2.3-5.1-.1-8.7-.9-8.7-2.1-14-2-20.2.4l-5.2 2-5.6-4.3c-3-2.4-8.6-6.7-12.5-9.6l-7-5.2 5.5 5c3 2.7 8.3 7.2 11.7 9.8 8.6 6.6 8.2 8.3-1.8 8.3-5.5 0-10.2 1.7-15.1 5.3-2.8 2-4.9 2.5-12.8 3.1-8.2.5-10.5 1.1-16.8 4.2-12.9 6.3-19.1 17.4-17.8 31.9 1.1 13.3 5.9 26.2 13.4 36.3 5.6 7.6 18.1 12.8 29 12.1 2.9-.2 5.2-.2 5.2 0s-3.8 7.7-8.5 16.8c-4.7 9.1-8.5 17.3-8.5 18.4 0 5.1 7.6 3.1 19.8-5.1 4.8-3.2 8.8-5.7 8.8-5.7.2.2 1.3 18.2 1.4 21.9 0 3.9 4.9 5.2 16 4l8.5-.8 6.8 6.5c5.6 5.5 7 6.4 8.5 5.5 1.2-.8 1.8-2.7 2-6.3l.3-5.1h11.3c12.3 0 13.1-.3 16.5-6 1.8-3 2.1-5.1 2.1-15.7 0-11.3.1-12.2 2-12.8 3.2-1 4.3-4.2 3.6-10.8-.4-4.2-1.4-7-3.1-9.3-2.4-3.1-2.4-3.3-.9-7.1 1.3-3.1 1.5-6.1 1.1-15.8-.3-6.6-1.2-14.2-2.1-16.8-1.4-4.6-1.4-4.8.3-3.3 1 .9 2.5 1.6 3.5 1.6 4.2 0 14.3-7.1 17.5-12.3 2.4-3.9 7.1-16.7 7.1-19.3 0-1.6 2.6-2.8 14.6-6.6 8.1-2.6 15.1-4.5 15.5-4.2.5.3.9 1.8.9 3.5 0 2.2.5 2.9 1.9 2.9 2.6 0 3.7-1.8 1.7-2.6-2.3-.9-2-4.4.4-4.4 1.4 0 2.1.9 2.6 3.5.5 2.8 1.1 3.5 3 3.5 2.7 0 3.2-1.7.9-2.6-2.3-.9-1.9-4.4.5-4.4 1.4 0 2.1.9 2.6 3.5.7 3.7 1 4 3.4 2.5 1.2-.7 1.1-1.2-.5-3-1.8-2-1.8-2.2-.2-3.1 1.1-.6 1.7-2.2 1.7-4.2 0-1.8.5-3.8 1.1-4.4.8-.8.5-1.3-1-1.8-2.4-.7-2.7-1.8-.7-3.4 1.1-.9 1.5-.9 1.9.1.3.7.6-.7.7-3.2.1-2.5.3-7.2.5-10.5s.1-5.4-.2-4.7c-.3.6-.8 1-1.3.7-.4-.3-.8 3.1-.7 7.5 0 9.7-1.2 11.6-3.9 6.3-1-2.1-2.7-4.5-3.8-5.4-1-.9-1.8-2.8-1.8-4.2 0-2.9-.5-3.2-2.8-1.7-1.2.7-1.2 1.2-.2 2.2 1.8 1.8 1.5 4.6-.7 5.7-2.2 1.2-3.1.5-3.1-2.6 0-2.4-1.5-2.9-3.9-1.4-1.1.7-1.1 1 .1 1.7 2.4 1.4 3.1 5.1 1.2 5.8-2.2.8-3.4-.1-3.4-2.6 0-1.4-.5-1.8-1.6-1.4-.9.3-1.8.6-2 .6-1.1 0-.2 2.4 1.4 3.6 1.1.8 1.4 1.6.7 2.2-.5.5-11.1 3.5-23.5 6.6-12.4 3.2-25.5 6.6-29.1 7.7-6.6 1.9-6.7 1.9-11-.1-2.4-1.1-6.1-2-8.1-2-2.4 0-4.6-.8-6.4-2.3l-2.7-2.4 3-2.1c3.3-2.3 18.7-19.8 21.7-24.5 2.9-4.8 1.3-3.8-2.1 1.1zm74.6 14.4c0 1.3-.3 1.7-.6 1-.3-.8-.9-1-1.6-.4-1.4 1-6.2 2.4-5.3 1.5 1-1.1 6.1-4.2 6.9-4.2.4-.1.7.9.6 2.1zm1.8 6.3l1 3-4.3.2c-5.7.3-11.4 2.7-11.4 5-.1 2.7-1.6-.3-2.4-4.7-.5-2.7-.4-3 .3-1.3.8 1.8 1.4 2 4.3 1.4 6.1-1.5 10.8-3.9 10.8-5.7 0-2.2.5-1.7 1.7 2.1zM208 233.3c3.3.8 5.9 2.5 9.9 6.5l5.5 5.4-9.1 2.4-9 2.3-5.8-2.3c-6.6-2.7-10.1-2.5-16 .9-3.6 2-10.4 8.5-9 8.5.3 0 .1.9-.5 2-1.2 2.3-5.8 2.4-6.4 0-1.8-6.3-1.8-8 .1-8 1.2 0 4-2.7 7.4-6.9 2.9-3.8 6.7-7.8 8.4-9 5.9-4 13.3-4.6 24.5-1.8zm107.8 5.2c-.2.1-1.8 0-3.7-.3l-3.4-.5 3.2-1.3c1.7-.7 3.2-1.9 3.2-2.6.1-.7.4 0 .6 1.5.3 1.6.3 3 .1 3.2zM171.3 244c-2.8 4-5.8 5.1-8 2.9-.5-.5-2.4-1.1-4.1-1.1-1.7-.1-2.9-.5-2.5-1.1 1.1-1.9 8.9-4.7 13.1-4.7h4.3l-2.8 4zm56-2.9c3.5.9 5.1 2.9 2.5 2.9-.7 0-2.2.3-3.4.6-1.5.4-2.5-.2-3.8-2-1.9-3-1.2-3.2 4.7-1.5zm38.7 5.4c3 5.7-1.7 21.1-8.5 27.9-1.8 1.8-5.2 4.2-7.6 5.4l-4.3 2.1-3-2.3c-1.7-1.3-4.8-4.8-6.9-7.9-3.1-4.6-3.6-5.9-2.8-8 .5-1.3 2.1-2.7 3.4-3.1 1.4-.3 3.2-.9 4.1-1.2 1.2-.5 1.6 0 1.7 1.7 0 1.6.7.5 2.1-3.1 3.5-9.4 12.4-16.7 17.9-14.8 1.4.5 3.2 2 3.9 3.3zm-118.1 5.6c-2.1 4.3-2.9 11.5-1.7 16 .7 2.4.4 2.8-3.8 4.4-4.3 1.6-4.7 1.6-5.6.1-.9-1.6-5.1-1.4-7.1.4-.9.7 6.8 25.6 8.5 27.7.8 1 1.7.9 4-.3 2.6-1.4 2.9-1.9 2.2-4.7-.4-1.8-.7-3.9-.8-4.7-.1-2.1 14-7.1 17.9-6.3 3.5.7 9.4.5 10.8-.4 2.8-1.7 7.9-1.1 11.5 1.3 3.2 2.2 4.5 2.5 9.5 2.1 3.3-.3 6.3-.9 6.9-1.5.6-.6 1.7-.8 2.6-.5 1 .4 1.3.2.8-.5-.4-.7-.1-1.2.8-1.2 2.6 0 6.8-6.6 7.4-11.5.4-3.9.8-4.6 3.1-5.1 1.4-.3 5.2-1.4 8.5-2.5l5.8-1.8-.4 7.7c-.4 9.1-3.9 17.7-8.4 20.9-2.6 1.8-3.6 2-9.4 1.1-3.6-.5-10.4-.7-15.2-.4-7.1.4-9.8 1-13.9 3.3-6.6 3.6-13.3 10.3-17.2 17.5-1.9 3.4-4.2 6.1-5.7 6.7-3.2 1.3-17.2 4.1-20.2 4.1-3.5 0-11.9-4.4-15.6-8-6.7-6.8-13.2-25.4-13.2-37.9 0-8 2.2-13.2 8.1-19.6 6.7-7.3 14-10.1 27.2-10.4l4.7-.1-2.1 4.1zm14.5-2.6c1.1 1.1 1.4 2.8.9 6.3-.7 6.6 1.2 8.6 7.6 7.9 2.5-.3 4.7-1 4.9-1.6.5-1.5 5.4-.3 7 1.7.6.9 1.2 3.3 1.2 5.3 0 4.4-3.3 7.7-10.4 10.4-12.8 4.9-25.6-3.5-25.6-16.8 0-4.6 1.9-10.6 4.1-13.4 1.5-1.8 8.4-1.7 10.3.2zm38 .2c1.9.9 3.7 2.2 4 3 .7 1.7-.8 1.7-2.4-.1-.6-.8-2.7-2-4.5-2.6-5.3-1.7-11.1.3-16.2 5.6-4.6 4.7-6 3.6-1.8-1.4 5-6 13.9-7.9 20.9-4.5zm7.7 26.1c-3.6 7-15.5 11.3-22 7.9-1.4-.6-2.6-1.8-2.9-2.5-.3-.9.9-.6 3.4.7 4.5 2.5 7.2 2.6 11.8.7 4-1.6 9.2-7.8 10.3-12 .6-2.6.8-2.8 1.1-.9.2 1.2-.6 3.9-1.7 6.1zm30.2 7.2c.9 3 1.8 7.7 2.2 10.4l.7 4.9-3.2-.7c-1.8-.3-4.9-.6-6.9-.6-6 0-6.8-1.2-3.6-5.4 2.2-2.8 3-5.5 3.9-11.6l1-8 2.2 2.8c1.3 1.5 2.9 5.2 3.7 8.2zm-92.8-7c-4.5 2.1-6.5 2.4-6.5 1.1 0-.9 5.6-2.9 8.5-2.9 1.2 0 .5.6-2 1.8zm2.5 2c-.8.5-1.9 1-2.5 1-.5 0-.3-.5.5-1s2-1 2.5-1c.6 0 .3.5-.5 1zm-4 1.4c0 .2-.9.6-2 .9-1.1.3-2 .1-2-.4s.9-.9 2-.9 2 .2 2 .4zm7.6.3c-1.1 1.1-9.9 4.3-10.4 3.8-.3-.2.1-.7.9-1 9.9-3.6 10.5-3.8 9.5-2.8zm4.3 2.7c-1.1 1.2-13.9 5.2-13.9 4.5 0-.5.1-.9.3-.9.1 0 2.7-.9 5.7-2 5.2-1.8 8.8-2.5 7.9-1.6zm77.4 50.7c2.7.5 5.2.7 5.6.4 1.6-.9 4.3 3.3 3.9 6.2-.3 2.5-.8 2.9-5.5 3.6-6.7 1.1-20.9-.4-20.5-2.1.1-.7-.2-1.2-.8-1.2-.5 0-1-.5-1-1.1 0-.5.4-.7 1-.4.5.3 1.6-.7 2.2-2.2 2.5-5.5 2.9-5.6 15.1-3.2zm-1.5 15.4c.1.1.1 4.3 0 9.3l-.3 9-5.2-7.7c-2.9-4.3-5.3-8.1-5.3-8.6 0-.4-.8-1.4-1.7-2.1-1.5-1.1-.7-1.2 5.2-.7 3.9.3 7.1.7 7.3.8zm-43.8 12c.3 7 1 12.9 1.8 14.2l1.3 2.3h-18.9l-.4-13.3c-.2-7.2.1-13.8.6-14.5.6-.9 3.1-1.2 8-1l7.1.3.5 12z"/><path d="M133.7 253.2c.9 1 1.3 1.8.8 1.8-.4 0-.2.7.5 1.5.8.9.9 1.5.2 1.5-.6 0-1.4-.5-1.7-1-.3-.6-1.1-1-1.8-1-.6 0-.1.7 1.1 1.6 2.1 1.5 2.5 1.5 4.2-.1 1.1-1 1.6-2.4 1.3-3.3-.5-1.1-.3-1.3.8-.6 2.3 1.4 5.8 1.3 5.2-.3-.6-1.5-.3-1.4-7-1.6-4.9-.2-5.1-.1-3.6 1.5zm3.7 2.9c-.3.5-1 .7-1.5.3-.5-.3-.7-1-.3-1.5.3-.5 1-.7 1.5-.3.5.3.7 1 .3 1.5zM128.6 253c-1.5.5-1.6.9-.7 1.4.7.5 1.8.3 2.4-.3 1.4-1.4.6-2-1.7-1.1zM138.4 259.2c-.3.4.2.8 1 .8s1.7-.4 2-.8c.3-.5-.2-.9-1-.9s-1.7.4-2 .9zM139.7 261.7c-.4.6 0 1.3.8 1.7.8.3 1.7 0 2.1-.6.4-.6.3-.8-.4-.4-.5.3-1.2.1-1.4-.6-.3-.8-.6-.9-1.1-.1zM143 266c0 .5.5 1 1.1 1 .5 0 .7-.5.4-1-.3-.6-.8-1-1.1-1-.2 0-.4.4-.4 1zM168.8 286.7c.7.3 1.6.2 1.9-.1.4-.3-.2-.6-1.3-.5-1.1 0-1.4.3-.6.6zM143.8 321.7c.7.3 1.6.2 1.9-.1.4-.3-.2-.6-1.3-.5-1.1 0-1.4.3-.6.6zM364.4 205.8c-1.7 1.2-2.4 5.5-1.1 7.1.8 1 .8 1.3 0 .8-.7-.5-1.2.8-1.5 4.2-.2 3.1.1 4.7.7 4.3.6-.3.5.1-.2.9-.6.8-1.4 2.8-1.6 4.4-.3 1.8-1 2.9-1.8 2.7-.7-.2-2.3.2-3.5.9-1.2.6-2.8.9-3.6.7-.7-.3.3-1.3 2.7-2.6 3.1-1.7 3.5-2.1 1.8-2.2-1.2 0-2.4.4-2.8 1-.3.5-1.1.7-1.8.5-2-.8-3.9 1.1-3.5 3.6.3 2.5 2.8 3.6 5.6 2.3.9-.4 2.1-.6 2.6-.5.5.1.6-.6.2-1.5-.5-1.3-.3-1.4.6-.7 1.3 1.1 5.1.2 6.1-1.4.3-.4.8-5.9 1.1-12.1.3-6.3.8-11.8 1.2-12.3.6-1.1.3-1.1-1.2-.1zM340.1 210.7c0 1.7-.6 3.5-1.1 3.8-.7.5-.8 1.1-.1 1.9.5.6 1 3 .9 5.2 0 2.3.3 5 .6 6.2.5 1.5.1 2.4-1.3 3.1-2.6 1.4-5.8 1.4-6.7-.1-.4-.6-.3-.8.4-.5 1.4.9 4.3-.3 3.6-1.4-1.1-1.8-4.5-.9-5.6 1.6-1.8 3.9.6 5.8 5.5 4.4 2-.5 3.7-1.4 3.7-1.9 0-.6.5-.9 1.1-.8.8.2 1.2-1.9 1.3-6.4.1-4.1-.3-6.4-.9-6.1-.5.3-.4 0 .3-.8.6-.7 1.2-3.6 1.1-6.4-.1-3.8-.3-4.4-.8-2.5l-.8 2.5-.5-2.5c-.5-2.2-.5-2.1-.7.7zM82 213c-.8.5-1.1 1-.5 1 .5 0 .4.5-.3 1.2-.8.8-1.2 4.7-1.2 11v9.8h-4.9c-4.3 0-5.3.4-7.5 3.1-2.5 3-3.6 6.6-1.6 5.4.6-.3 1 .1 1 1.1 0 1.3.6 1.5 3.1 1 1.8-.3 3.8-1.4 4.6-2.4.8-.9 1.1-1.1.8-.4-1 1.8 3-.2 6.3-3.1 2.1-2 3.2-6.4 1.2-5.2-.6.4-.8 1-.5 1.5.3.5.1 1.1-.4 1.4-1.3.9-.8-1.9.8-3.7.9-1.1 1.1-4.3.9-10.4l-.3-8.9 2.6-.2c1.7-.1 2.9.4 3.3 1.4.4.9 1.2 1.4 2.2 1 .8-.3 1.2-.2.9.4-.9 1.5 1.8 1.2 4.1-.4 1-.8 1.5-1.8 1.1-2.3-.5-.4-1.5 0-2.2 1-.7 1-1.5 1.4-1.7 1-.1-.4-1.5-1.9-3.1-3.2-2.1-1.9-3-2.2-3.9-1.3-.7.7-1.7 1.2-2.2 1.2-.6 0-.4-.5.4-1 1.3-.9 1.3-1 0-1-.8 0-2.2.5-3 1zm-2.8 25.2c-1.6 1.6-1.5 3.1.1 2.2.8-.5.8-.2-.2.9-1.5 1.9-2.6 2.3-1.5.5.5-.8.2-.9-1.2-.3-6.9 2.8-7.7 3-8.1 1.7-.3-.6-1-.9-1.5-.6-.7.5-.8.2-.4-.5.5-.7 1-1 1.3-.7.3.3 1.9-.4 3.4-1.5 1.8-1.2 3.7-1.8 4.8-1.4 1.1.3 2.2.1 2.6-.5.3-.5.9-1 1.3-1 .3 0 .1.5-.6 1.2z"/><path d="M329.5 214.4c-3.8.6-6.5 1.4-6 1.7 1.8 1 9.3 1 10 0 .3-.6 1.2-.8 1.9-.5.7.3 1.9-.2 2.6-1.1 1.5-1.8 1.6-1.8-8.5-.1zM209 218.5c-3.8 3.9-3 4.7 1.4 1.2 1.6-1.3 2.7-2.9 2.5-3.6-.3-.7-1.8.2-3.9 2.4zM183.7 221.2c1.7 1.7 3.6 2.2 8.5 2.5l6.3.2-5.5-1.3c-3-.7-6.5-1.8-7.7-2.4-3.3-1.8-4-1.4-1.6 1zM37.6 292.2c-1.8 1-1.8 1.1.3 2.2 1.2.7 3 2.7 4 4.6 2.1 4 6.3 6 8.9 4.4 2.1-1.4 1.8-2.9-.6-3-3.8-.2-4.3-.5-5.4-3.2-1.3-2.9-3.8-6.2-4.7-6.2-.3 0-1.5.6-2.5 1.2zM36.4 295.8c-.7.4-1.4 5.2-1.8 12.2-.3 6.3-.5 11.6-.6 11.8 0 .2-.8.1-1.8-.2-4.3-1.4-13.2 3.7-13.2 7.5 0 4.6 9.5 4.3 15.5-.5 2.9-2.3 2.9-2.4 3.3-15.3.5-14.4.2-16.6-1.4-15.5zM34 322.5c0 1.1-6.6 4.5-8.8 4.5-3.9 0-2-2.4 2.9-3.7 5.3-1.4 5.9-1.5 5.9-.8zM347.1 331.6c-2.5 3.2-2.6 3.8-.5 5.9 2.7 2.7 8.4-.3 8.4-4.5 0-4.4-4.9-5.2-7.9-1.4z"/></svg>